<svg width="78" height="78" viewBox="0 0 78 78" fill="none" xmlns="http://www.w3.org/2000/svg">
<path d="M65.8125 27.6608C68.6855 28.5838 70.6875 31.3268 70.6875 34.476V48.4055C70.6875 52.0975 67.9347 55.2305 64.2525 55.5328C63.1475 55.6205 62.0425 55.7018 60.9375 55.7668V65.8125L51.1875 56.0625C46.787 56.0625 42.432 55.8838 38.1225 55.5328C37.1843 55.4569 36.2717 55.1892 35.4412 54.7463M65.8125 27.6608C65.3103 27.4991 64.7913 27.3955 64.2655 27.352C55.5618 26.6295 46.8132 26.6295 38.1095 27.352C34.4337 27.6575 31.6875 30.7873 31.6875 34.476V48.4055C31.6875 51.1258 33.1825 53.5405 35.4412 54.7463M65.8125 27.6608V21.5703C65.8125 16.302 62.0685 11.7358 56.8425 11.0565C50.1177 10.1848 43.3436 9.74842 36.5625 9.75C29.6887 9.75 22.919 10.1953 16.2825 11.0565C11.0565 11.7358 7.3125 16.302 7.3125 21.5703V41.8048C7.3125 47.073 11.0565 51.6393 16.2825 52.3185C18.1578 52.5623 20.0427 52.7735 21.9375 52.949V68.25L35.4412 54.7463" stroke="white" stroke-width="5" stroke-linecap="round" stroke-linejoin="round"/>
</svg>
