<svg width="36" height="36" viewBox="0 0 36 36" fill="none" xmlns="http://www.w3.org/2000/svg">
<path d="M14.0544 5.84685C10.9224 6.91965 8.2512 9.26685 6.768 12.2261C6.2496 13.2485 5.8752 14.3357 5.652 15.4589C5.0832 18.2525 5.4792 21.2261 6.768 23.7749C7.6032 25.4381 8.8056 26.9141 10.26 28.0661C11.6352 29.1605 13.2336 29.9669 14.9328 30.4205C17.0712 30.9965 19.3536 30.9821 21.5136 30.4925C23.4648 30.0461 25.308 29.1101 26.7768 27.7565C28.332 26.3237 29.4408 24.4445 30.0312 22.4213C30.672 20.2109 30.7584 17.8565 30.3552 15.5957C26.3232 15.5957 22.2912 15.5957 18.252 15.5957C18.252 17.2661 18.252 18.9437 18.252 20.6141C20.5848 20.6141 22.9248 20.6141 25.2576 20.6141C24.984 22.2197 24.0336 23.6813 22.68 24.5885C21.8304 25.1573 20.8584 25.5317 19.8504 25.7045C18.8352 25.8773 17.7912 25.8989 16.7832 25.6973C15.7536 25.4957 14.7744 25.0637 13.9176 24.4589C12.5496 23.5013 11.5056 22.0901 10.9728 20.5133C10.4256 18.9077 10.4184 17.1149 10.9728 15.5093C11.3544 14.3789 11.9952 13.3277 12.8376 12.4781C13.8744 11.4125 15.2208 10.6564 16.6752 10.3468C17.9208 10.0805 19.2312 10.1309 20.448 10.4981C21.4848 10.8149 22.4352 11.3765 23.22 12.1252C24.012 11.3404 24.7968 10.5485 25.5888 9.76365C25.9992 9.33885 26.4384 8.93565 26.8416 8.49645C25.6464 7.38765 24.2352 6.49485 22.7016 5.93325C19.9512 4.90365 16.8336 4.88205 14.0544 5.84685Z" fill="white"/>
<path d="M14.0544 5.8467C16.8336 4.8819 19.9512 4.9035 22.716 5.9259C24.2496 6.4875 25.6536 7.3803 26.856 8.4891C26.4528 8.9211 26.0208 9.3315 25.6032 9.7563C24.8112 10.5411 24.0264 11.3331 23.2344 12.1179C22.4496 11.3691 21.4992 10.8003 20.4624 10.4907C19.2456 10.1235 17.9352 10.0731 16.6896 10.3395C15.2352 10.6491 13.8888 11.4123 12.852 12.4707C12.0096 13.3203 11.3688 14.3715 10.9872 15.5019C9.58321 14.4147 8.17921 13.3203 6.77521 12.2331C8.25121 9.2667 10.9224 6.9195 14.0544 5.8467Z" fill="#E94435"/>
<path d="M5.652 15.4584C5.8752 14.3352 6.2568 13.248 6.768 12.2256C8.172 13.3128 9.576 14.4072 10.98 15.4944C10.4256 17.1 10.4328 18.8928 10.98 20.4984C9.576 21.5856 8.172 22.68 6.768 23.7672C5.4792 21.2328 5.0832 18.252 5.652 15.4584Z" fill="#F8BB15"/>
<path d="M18.2592 15.5879C22.2912 15.5879 26.3232 15.5879 30.3624 15.5879C30.7656 17.8487 30.6792 20.2031 30.0384 22.4135C29.448 24.4367 28.3392 26.3231 26.784 27.7487C25.4232 26.6903 24.0552 25.6319 22.7016 24.5735C24.0552 23.6735 25.0056 22.2047 25.2792 20.5991C22.9464 20.5991 20.6064 20.5991 18.2736 20.5991C18.252 18.9359 18.2592 17.2655 18.2592 15.5879Z" fill="#547DBE"/>
<path d="M6.76801 23.7747C8.17201 22.6875 9.57601 21.5931 10.98 20.5059C11.5128 22.0899 12.5568 23.4939 13.9248 24.4515C14.7816 25.0563 15.7608 25.4811 16.7904 25.6899C17.7984 25.8915 18.8496 25.8699 19.8576 25.6971C20.8656 25.5243 21.8376 25.1499 22.6872 24.5811C24.048 25.6395 25.416 26.6979 26.7696 27.7563C25.3008 29.1171 23.4576 30.0459 21.5064 30.4923C19.3536 30.9819 17.0712 30.9963 14.9256 30.4203C13.2264 29.9667 11.628 29.1603 10.2528 28.0659C8.8056 26.9067 7.60321 25.4307 6.76801 23.7747Z" fill="#34A751"/>
</svg>
