<svg width="53" height="34" viewBox="0 0 53 34" fill="none" xmlns="http://www.w3.org/2000/svg">
<path fill-rule="evenodd" clip-rule="evenodd" d="M3.90285 24.7829C3.43665 25.652 3.43202 26.9333 3.93836 27.7808C4.31503 26.7959 3.81949 26.447 3.90285 24.7829ZM52.8575 29.0574C53.2419 26.924 52.7217 23.9786 52.768 22.2558C52.7834 21.7031 52.1196 19.139 51.6241 17.7404C51.4296 17.5335 51.2381 17.3236 51.1363 17.1337C51.0267 16.9315 50.3968 16.4575 50.1622 16.4683C49.8982 16.4792 48.6663 16.0747 48.3591 15.9728C48.339 15.9682 48.0982 15.8586 47.8435 15.7721C47.6968 15.7243 47.5085 15.7135 47.4483 15.6564C47.3387 15.6147 47.3634 15.6425 47.2677 15.627C47.209 15.6178 47.1504 15.59 47.1442 15.5869C47.1133 15.5745 47.2538 15.5622 47.2553 15.5622C47.3773 15.5313 47.3124 15.5545 47.3835 15.5251C47.402 15.5174 47.4622 15.5174 47.4992 15.4989C47.51 15.4927 47.6428 15.4649 47.7802 15.451C48.0658 15.4217 48.3637 15.3738 47.5594 15.1392C47.2399 15.045 47.0114 14.9725 46.8015 14.9138C45.9401 14.7718 45.0802 14.6251 44.2204 14.4831C43.9425 14.4507 43.5535 14.4028 43.3497 14.4028C43.2679 14.4028 42.848 14.372 42.8326 14.3751C42.4621 14.3102 42.1317 14.5155 41.8168 14.5078C41.0974 14.4924 40.4552 14.3473 39.5984 14.3025C39.1724 14.2809 38.7571 14.1481 38.399 14.0879C37.8571 13.9953 37.4542 13.9706 37.4048 13.9691C37.2736 13.9629 37.925 13.9691 38.6645 13.9613C39.4935 13.9521 40.29 13.9351 40.3225 13.9289C40.4058 13.9119 41.1267 13.8641 41.2116 13.8656C41.4478 13.8703 41.7921 13.7792 41.9866 13.7776C42.1826 13.7761 42.5886 13.6819 42.8295 13.6819C43.1413 13.6819 43.1969 13.6788 43.5025 13.6372C43.7742 13.5986 44.0675 13.6896 44.384 13.5878C44.4843 13.5553 45.7378 13.472 46.0126 13.472C46.1454 13.4226 46.414 13.492 46.7104 13.4596C46.9775 13.4318 47.2677 13.2991 47.5517 13.2991C48.0812 13.3006 48.5536 13.4488 48.6308 13.3176C48.7697 13.0768 49.0615 12.802 48.6076 12.4639C48.5999 12.4593 48.4486 12.3543 48.4131 12.1737C48.3884 12.0533 48.4934 11.8819 48.4332 11.743C48.3267 11.4945 48.0859 11.266 48.0226 11.1641C47.5872 10.5744 47.1396 9.98161 46.7366 9.45366C45.8922 8.3468 41.5235 4.41802 40.7979 4.13706C39.9242 3.20311 38.7262 3.26949 38.0717 2.7863C36.4091 1.55904 34.7542 1.41547 33.5316 1.06967C32.7736 0.855097 32.3383 0.726968 31.886 0.611188C30.3299 0.209819 29.3913 0.0554463 28.587 0.0137656C27.3937 -0.0510707 26.4937 0.134176 24.3001 0.134176C23.9451 0.134176 22.7209 0.225256 21.4952 0.452184C20.3019 0.671393 19.1086 1.02799 18.6331 1.1623C17.2623 1.55441 15.5287 2.32009 15.1242 2.53158C14.8278 2.6875 14.5654 2.76932 14.2906 2.8712C13.545 3.14444 13.6422 3.38835 13.6453 3.623C13.6499 3.86073 13.5697 4.08766 14.2119 4.10773C14.3848 4.11236 14.7491 4.25901 15.189 4.25901C15.5348 4.25901 15.9856 4.33929 16.4287 4.33929C16.9844 4.33929 17.3873 4.27908 17.9183 4.34083C18.2117 4.37479 18.4803 4.39023 18.7442 4.39949C19.1086 4.41339 19.4621 4.41802 19.848 4.45198C20.5658 4.51682 21.259 4.7067 21.3269 4.7067C21.9753 4.7067 21.8904 4.82247 22.0864 4.84254C22.2886 4.97067 22.9741 5.0139 23.1361 4.94752C23.1361 4.94597 22.9663 5.0741 22.724 5.0741C22.3133 5.0741 22.0108 5.01853 21.6017 5.11115C21.0814 5.23002 20.8236 4.88268 20.0626 5.22384C19.672 5.39983 18.224 5.15129 17.6698 5.3319C17.5648 5.36741 17.0106 5.36587 16.4395 5.35506C15.9239 5.34734 15.3928 5.3319 15.1751 5.3319C14.6379 5.3319 14.2643 5.44305 13.8661 5.52641C13.6299 5.57736 13.3844 5.61595 13.0911 5.61595C12.8673 5.61595 12.6512 5.62984 12.4211 5.62984C12.381 5.52641 11.2741 5.61595 11.2448 5.6283C11.2356 5.63139 11.2247 5.63602 11.2155 5.63911C11.0364 5.7024 10.8604 5.77341 10.6721 5.84905C10.4606 5.93396 10.2368 6.02504 9.98359 6.11612C9.77982 6.28284 9.44329 6.34922 9.25495 6.48198C8.65599 6.90342 8.31637 7.24304 8.25153 7.40204C8.19904 7.53635 6.81432 8.59843 5.85567 9.82878C5.54229 10.2317 5.57934 10.6778 5.38792 11.0159C5.1085 11.5099 4.65156 11.8526 4.46323 12.1351C4.06494 12.7325 3.85345 13.1308 4.89856 13.1956C5.57625 13.2389 6.15978 13.1926 6.84674 13.225C7.45188 13.2528 7.63558 13.5044 8.46148 13.492C8.72237 13.5152 9.09749 13.5245 9.35684 13.5476C9.70263 13.58 10.033 13.6727 10.3757 13.7051C10.4004 13.7128 10.422 13.7205 10.4436 13.7298C10.6752 13.8255 12.9923 13.9135 13.511 14.0293C13.6083 14.0509 14.2211 13.9274 14.8649 13.9413C15.6583 13.9598 16.512 14.1157 16.6633 14.1574C15.8127 14.1929 12.2066 14.2716 11.6647 14.2994C11.0503 14.3334 10.317 14.4414 9.69646 14.4167C9.44792 14.4059 8.81036 14.5881 8.19441 14.6622C7.71431 14.7209 7.22341 14.6699 7.09682 14.707L6.58122 14.7579C6.31878 14.7579 5.74297 14.869 5.15018 14.92C4.67008 14.9601 4.28107 14.9555 3.93527 14.9447C3.48913 14.9277 3.33939 15.0419 3.09394 15.116C2.92259 15.1701 2.74197 15.2473 2.62465 15.3723C2.38074 15.6347 2.16925 15.9172 2.0334 16.2322C1.6274 17.1723 1.33872 18.1973 0.926547 19.2579C0.528266 20.286 0.288988 22.3993 0.0790414 23.9091C-0.112381 25.2877 0.0960225 27.4612 0.159315 28.829C0.245764 30.6923 0.489673 31.6262 0.690357 32.3379C0.895673 31.9998 1.10253 31.6339 1.21831 31.4348C1.24147 31.3931 1.26154 31.3576 1.27697 31.3329C1.22912 31.6231 0.992928 32.273 0.816943 32.7809L0.823118 32.7994C0.909566 32.7979 0.997559 32.7964 1.08246 32.7917C1.27234 32.7809 1.45759 32.7578 1.63975 32.7253C1.64129 32.4058 1.58417 31.8006 1.578 31.742C1.578 31.742 1.53014 31.0504 1.52243 30.9809C1.51316 30.9115 1.50699 30.8358 1.49773 30.7633C1.49155 30.7077 1.48692 30.6537 1.4792 30.6043C1.52397 30.6583 1.58109 30.879 1.60116 30.9547C1.68143 31.1893 1.7509 31.4286 1.82037 31.6694C1.87748 31.8809 1.99481 32.3024 2.06891 32.6343C2.2665 32.5864 2.45175 32.5324 2.62465 32.4799L2.59068 31.3545L2.5876 31.2341L3.04917 32.3471C3.12481 32.324 3.19583 32.3024 3.26221 32.2838C3.17884 31.6571 3.06152 31.0396 2.796 30.4962C2.76358 30.4298 2.72962 30.365 2.69257 30.3001C3.10938 30.7648 3.37027 31.3561 3.5833 31.9813C3.58948 31.955 3.59719 31.9288 3.60337 31.901C3.68364 31.6339 3.767 31.3931 3.90594 31.1646C3.96151 31.0736 4.01246 31.0041 4.09119 30.9454C4.10354 30.9315 4.12052 30.9192 4.14059 30.9115C4.18535 30.8914 4.23939 30.8852 4.27643 30.8883C4.25791 30.8219 4.24093 30.7525 4.23167 30.683C4.18227 30.3048 4.17609 29.9142 4.14059 29.766C4.09119 29.5576 4.05414 29.3801 4.01554 29.1748C3.98004 28.988 3.93218 28.7549 3.91829 28.6329C3.89977 28.8413 3.83647 28.9463 3.78707 29.0744C3.75002 29.1701 3.69908 29.2411 3.65431 29.3199C3.61881 29.3816 3.59256 29.4526 3.55088 29.5051C3.49068 29.5854 3.43202 29.6672 3.35483 29.7305C3.29617 29.7784 3.22207 29.8108 3.1526 29.8509C3.17884 29.7135 3.21898 29.5777 3.22824 29.4604C3.24214 29.2782 3.21589 29.1269 3.20046 28.9833C3.18193 28.7996 3.12327 28.6576 3.0785 28.5125C3.02756 28.3489 2.98897 28.1883 2.93648 28.0417C2.90252 27.946 2.89326 27.8503 2.86856 27.7484C2.84077 27.628 2.80063 27.4998 2.80218 27.3547C2.80526 27.1432 2.84849 26.8993 2.95809 26.5937C3.14951 26.0642 3.32859 25.5624 3.40114 25.0993C3.46598 24.701 3.47061 24.3306 3.47833 23.9863C3.48296 23.8196 3.57558 23.7023 3.58793 23.5463C3.60337 23.3719 3.63424 23.1836 3.66512 23.0307C3.78244 22.441 3.93527 21.998 4.39221 21.6599C4.75036 21.3033 5.25361 21.4114 5.93594 21.3589C6.26012 21.3342 6.64451 21.1844 7.06132 21.1211C7.57847 21.0409 7.80848 21.1458 8.28549 21.2091C8.57726 21.2493 8.98171 21.2508 9.03111 21.2709C9.04964 21.2786 9.74895 21.3928 10.5131 21.4654C11.2772 21.5379 12.1062 21.5704 12.3038 21.5873C13.2146 21.6645 14.1794 21.5657 15.1119 21.5657C15.3727 21.5657 16.353 21.6306 17.1202 21.751C18.2935 21.9362 18.3984 22.4024 19.5578 22.7575C20.87 23.1589 20.6075 24.258 20.8468 24.8523C20.9348 24.9681 21.3609 25.9299 21.5399 26.3575C21.7236 26.7974 22.088 27.8178 22.4337 28.0725C22.5511 27.9799 22.548 27.7746 22.5912 27.6295C22.6205 27.5245 22.6854 27.5338 22.7873 27.4906C22.8814 27.4535 22.9247 27.4026 23.0173 27.4118C23.4927 27.4566 23.3214 27.8456 23.3121 28.1621C23.3121 28.196 23.3121 28.23 23.3168 28.2624C23.3214 28.2964 23.3075 28.3689 23.3029 28.4245C23.2998 28.4523 23.3013 28.5125 23.3307 28.531C23.5962 28.6962 23.4727 28.9525 23.7212 29.1099C23.8123 29.2103 23.9312 29.3075 23.9574 29.4295C24.0145 29.6888 23.979 29.9127 23.7953 30.1072C23.6487 30.2955 23.7011 30.5919 23.7536 30.7972C23.8246 31.0813 24.0562 31.302 24.1519 31.5428C24.2399 31.7636 24.189 32.131 23.962 32.2483C23.874 32.2946 23.7922 32.3193 23.7166 32.3301C23.7197 32.5771 23.712 32.8241 23.6873 33.0279C23.6811 33.0773 23.6502 33.2425 23.6193 33.3737C23.8108 33.403 24.0006 33.4277 24.1874 33.4463C24.3171 33.2409 24.3665 32.9245 24.3958 32.6759C24.4236 32.3548 24.4267 32.0276 24.348 31.7188C24.3727 31.7512 24.3958 31.7868 24.4174 31.8238C24.5548 32.0677 24.6212 32.3749 24.666 32.6682C24.7015 32.9476 24.72 33.2162 24.6922 33.4849C24.7802 33.4879 24.8682 33.491 24.9562 33.491C24.8914 33.0001 24.9624 32.537 25.143 32.0677L25.4749 31.4332L25.5042 31.4024L25.4842 31.4842L25.3143 32.1434C25.2773 32.6559 25.2541 32.997 25.4842 33.4725C25.6323 33.4617 25.7775 33.4432 25.921 33.42C25.9751 33.153 25.9951 32.9893 26.0106 32.5787C26.0214 32.6188 26.0322 32.659 26.0445 32.6976C26.1186 32.9291 26.2035 33.1344 26.2807 33.3459C26.4413 33.3058 26.5987 33.2564 26.7516 33.1977C26.7917 32.8766 26.8642 32.6559 26.875 32.3163L26.8843 32.2406C26.8874 32.256 26.8997 32.2993 26.9059 32.3085C26.909 32.3163 26.9121 32.324 26.9152 32.3301C27.0387 32.6574 27.1205 32.7331 27.2085 33.0109C27.403 32.9291 27.6176 32.8442 27.8522 32.7686C27.8538 32.6667 27.8445 32.5849 27.7797 32.341C27.7997 32.3595 27.8167 32.3749 27.8352 32.3888C27.9943 32.5185 28.0961 32.5185 28.2212 32.6605C28.3539 32.6265 28.4913 32.5972 28.6349 32.5725C28.6148 31.9766 28.5191 31.5475 28.2135 30.7417C28.2613 30.8266 28.3061 30.9068 28.3493 30.9825C28.6858 31.5892 28.8773 31.9705 29.0069 32.5262C29.2416 32.5061 29.4886 32.5046 29.7495 32.5293C29.7757 32.378 29.7911 32.2267 29.8066 32.0723C29.8297 31.8006 29.8405 31.5413 29.8421 31.2696C29.8313 31.0983 29.8313 30.9053 29.7911 30.7417C29.8143 30.7694 29.8344 30.8188 29.856 30.8744C29.9008 30.9995 29.9393 31.1646 29.9517 31.2495C30.015 31.5259 30.0536 31.7883 30.0845 32.0708C30.1014 32.2437 30.1122 32.4104 30.1184 32.5787C30.211 32.5941 30.3052 32.6142 30.4009 32.6373C30.4858 32.6574 30.5723 32.6775 30.6618 32.6976C30.7004 32.5247 30.7297 32.3811 30.7282 32.341C30.7977 31.9365 30.8224 31.6247 30.7359 31.2202C30.7637 31.2696 30.7869 31.3205 30.8085 31.3746C30.9335 31.6802 30.9845 32.0276 31.0045 32.3687C31.0122 32.5015 31.0138 32.6358 31.0153 32.7686L31.1481 32.7933C31.2762 32.2391 31.3951 31.4286 31.5232 31.1307C31.5294 31.1476 31.534 31.1862 31.5386 31.2403C31.5556 31.5274 31.5371 32.2684 31.5124 32.855C31.6822 32.8828 31.8582 32.9075 32.0373 32.9322C32.082 32.679 32.1268 32.4259 32.1777 32.1742C32.1824 32.1634 32.1916 31.9828 32.1916 31.9535C32.1932 31.9473 32.1855 31.8593 32.1839 31.8531C32.1685 31.8037 32.1438 31.7883 32.1129 31.7528C32.0867 31.7204 32.0728 31.6972 32.0558 31.6555C32.0434 31.5938 32.0342 31.5629 32.028 31.495C32.0373 31.5243 32.0666 31.5984 32.0898 31.6216C32.0913 31.6231 32.0928 31.6247 32.0944 31.6247C32.1129 31.6509 32.1284 31.6633 32.1531 31.6756C32.2133 31.7018 32.2395 31.7003 32.2874 31.7651C32.3198 31.8084 32.3383 31.8516 32.3553 31.9072C32.3877 31.9905 32.4047 32.0723 32.4186 32.1619C32.4911 32.4289 32.5174 32.713 32.5328 32.9939C32.6193 33.0048 32.7072 33.014 32.7952 33.0233C32.8169 32.9615 32.8771 32.906 32.8771 32.906C32.8771 32.906 33.1858 32.4799 33.2923 32.3857C33.3139 32.3657 33.334 32.3487 33.3525 32.3348C33.3973 31.8238 33.422 31.3128 33.3865 30.8127C33.405 30.8852 33.422 30.9593 33.439 31.0334C33.5084 31.3545 33.5563 31.6833 33.5903 32.0152C33.6072 31.9859 33.618 31.9612 33.618 31.9504C33.618 31.9195 33.8311 30.9439 33.7091 30.6413C33.5964 30.3603 33.4127 30.26 33.2908 29.9188C33.0191 29.871 32.6085 29.7598 32.3645 29.5005C31.9755 29.0883 32.0867 29.2489 31.1249 28.5357C30.1647 27.8225 30.475 27.6249 30.0459 27.0058C29.6152 26.3837 28.056 25.3942 28.056 25.3942C28.056 25.3942 27.8877 25.6458 27.1745 25.7338C26.4629 25.8218 25.9442 25.4945 25.8315 25.4389C25.7173 25.3849 25.5397 25.3432 25.4224 25.4189C25.3035 25.4945 24.9917 25.4281 24.7725 25.4112C24.5533 25.3942 24.4221 25.1379 24.4221 25.1379C24.2739 25.1966 24.1257 25.1549 24.0763 25.0345C24.0284 24.9156 23.996 24.735 23.9806 24.5884C23.9543 24.3614 23.9806 24.1268 24.4005 23.7578C24.8234 23.3889 25.2341 22.2203 25.3282 21.91C25.4209 21.5997 25.637 21.5009 25.8392 21.2292C26.0414 20.956 26.239 20.9297 26.29 20.8139C26.3394 20.6951 26.5123 20.6534 26.5123 20.6534C26.5972 20.2983 25.9828 19.667 25.7636 19.5404C26.1835 19.4632 26.7855 19.8383 27.0479 20.1393C27.0479 20.1393 27.21 20.2397 27.3243 20.1687C27.3953 20.1239 27.5126 20.1193 27.5929 20.1193C27.6809 20.1224 27.6762 20.2443 27.6608 20.3014C27.9973 19.8491 27.2517 19.2532 27.2517 19.2532C27.2517 19.2532 27.6778 19.3922 28.0575 19.7395C28.4358 20.0868 28.3817 20.6071 28.3817 20.6071C28.3817 20.6071 29.0471 20.6241 29.7387 20.2551C30.4303 19.8862 30.8471 19.8151 31.3951 19.8306C31.9431 19.8491 32.7443 20.235 33.95 20.4018C35.1541 20.57 35.3655 20.6796 36.5882 20.78C37.377 20.8448 37.8787 20.8433 38.2168 20.8603C39.2851 20.9174 39.5861 21.1211 40.8952 20.939C42.1008 20.7723 43.4794 20.9884 44.1833 20.9297C44.8873 20.8726 45.8737 20.763 46.1022 20.7723C46.3291 20.78 46.4634 20.797 46.8339 20.7383C47.8296 20.5762 48.5104 21.0069 48.9334 21.6043C49.8874 22.9443 49.0584 24.5992 49.1418 26.1058C49.1927 27.0506 49.733 28.6715 49.7948 28.8861C49.855 29.1038 49.9507 29.1995 49.838 29.8586C49.838 29.8586 49.6373 30.0825 49.6296 30.4206C49.6203 30.7586 49.926 31.0751 49.8719 31.3298C49.821 31.583 49.8673 31.7713 49.7268 32.0415L49.8287 32.9276C50.0047 32.8967 50.1776 32.8704 50.3428 32.8519C50.3351 32.747 50.3258 32.659 50.3165 32.6003C50.2826 32.378 50.2625 32.06 50.1822 31.8547C50.1653 31.8099 50.0958 31.637 50.0634 31.6154C50.014 31.5537 49.9707 31.5212 49.9028 31.5073C49.9399 31.5012 50.0001 31.5089 50.0464 31.529C50.0665 31.5367 50.0834 31.549 50.0973 31.5629C50.1745 31.6216 50.2255 31.691 50.281 31.7821C50.42 32.0106 50.5033 32.2514 50.5836 32.5185C50.5898 32.5463 50.5975 32.5725 50.6037 32.5988C50.8183 31.9735 51.0776 31.3823 51.4944 30.9192C51.4589 30.9825 51.4234 31.0473 51.3925 31.1137C51.127 31.6571 51.0081 32.2746 50.9263 32.9013C50.9912 32.9198 51.0622 32.9415 51.1378 32.9646L51.6009 31.8516L51.5963 31.972L51.5623 33.0989C51.7198 33.1468 51.8896 33.1946 52.0671 33.2394C52.3774 31.9334 52.5766 30.6228 52.8143 29.2952L52.8575 29.0574ZM4.27798 30.8914C4.2116 30.9068 4.17146 30.9377 4.12361 30.9979C4.09119 31.018 4.02172 31.1924 4.00474 31.2372C3.92292 31.4425 3.9044 31.7605 3.87043 31.9828C3.86117 32.0415 3.85191 32.1295 3.84419 32.2344C4.01091 32.253 4.18227 32.2792 4.3598 32.3101L4.37369 32.185C4.34436 32.1325 4.30731 32.0878 4.27643 32.0554C4.20697 31.8392 4.3459 31.6185 4.35208 31.6031C4.36906 31.5521 4.37369 31.3607 4.33355 31.1168C4.32275 31.0458 4.29959 30.9701 4.27798 30.8914ZM5.33852 31.461L5.54383 32.0229C5.57316 32.0538 5.59478 32.0847 5.59632 32.1279C5.59941 32.2422 5.7368 32.3471 5.70901 32.4706L5.73989 32.554C5.9344 32.5802 6.13199 32.5988 6.33268 32.6049C6.28482 32.2221 6.18757 31.6771 6.23388 31.4826C6.24314 31.4965 6.2524 31.512 6.26321 31.529C6.40369 31.7682 6.58276 32.307 6.7325 32.608C6.9795 32.6049 7.22341 32.6003 7.41637 32.5972C7.32993 32.2669 7.22495 31.9473 7.11998 31.6185C7.14468 31.6509 7.17092 31.6833 7.19562 31.7142C7.42564 32.0091 7.66337 32.2807 7.87641 32.5926C7.96594 32.5941 8.06165 32.5957 8.16354 32.5988C8.21757 32.0754 8.28549 32.0337 8.2469 31.7111C8.05239 31.5212 7.83627 31.3113 7.73593 31.1538C7.66337 31.0427 7.59082 30.9624 7.49665 30.7926C7.4102 30.6367 7.13542 30.1535 6.88688 29.9497C6.50403 29.6348 6.28019 29.0652 6.32496 28.9432C6.04555 29.1748 5.73217 29.6703 5.72908 29.6734C5.68894 29.7166 5.56236 30.064 5.479 30.3835C5.42188 30.6043 5.39718 30.8142 5.38637 30.8883C5.3555 31.089 5.34161 31.3082 5.33852 31.461ZM8.61122 32.1156C8.62357 32.2298 8.63437 32.3888 8.64981 32.6111H8.66371C8.69921 32.52 8.73317 32.4413 8.76868 32.3703C8.72391 32.2838 8.66525 32.1912 8.61122 32.1156ZM9.2426 31.6972C9.31825 31.6092 9.40469 31.5104 9.50349 31.3838C9.47879 31.441 9.45564 31.4934 9.43403 31.5413C9.3908 31.6416 9.3553 31.7265 9.32751 31.8022C9.36456 31.847 9.39698 31.8886 9.4155 31.9118C9.48806 32.0075 9.51584 32.0569 9.57914 32.1449C9.61927 32.202 9.72888 32.2993 9.83231 32.3657L9.85238 32.378C9.87399 32.2051 9.86781 32.0353 9.84157 31.8392C9.78754 31.5027 9.698 31.2573 9.53746 30.9825C9.57296 31.0118 9.60692 31.0411 9.63934 31.072C9.82922 31.2511 9.96507 31.4456 10.0963 31.7173C10.209 31.9689 10.2754 32.1943 10.3062 32.4475C10.3664 32.0847 10.4544 31.5799 10.4899 31.5135C10.5023 31.4873 10.5254 31.3128 10.5332 31.2727C10.5393 31.3036 10.5486 31.3437 10.5563 31.3838C10.5656 31.4332 10.5764 31.4842 10.5779 31.5259C10.6011 31.8809 10.6968 32.2807 10.7693 32.6451C10.8481 32.6435 10.9253 32.6404 10.9978 32.6373C10.9623 32.1619 10.8851 31.8423 10.74 31.3252C10.7678 31.3699 10.7925 31.4132 10.8203 31.4533C11.075 31.8562 11.2988 32.1248 11.4795 32.5972C11.6832 32.5694 11.8747 32.5416 12.0568 32.5138C12.0367 32.4089 12.0182 32.3224 12.0136 32.3116C11.9534 32.0816 11.887 31.9519 11.7373 31.7991C11.7666 31.8068 11.7975 31.8161 11.8283 31.8284C11.9781 31.8856 12.1294 31.9844 12.2405 32.1202C12.2683 32.1542 12.2946 32.1866 12.3208 32.2221C12.4566 31.9303 12.645 31.6432 12.8225 31.4703L12.8287 31.4641L12.8472 31.4379L12.841 31.4718L12.8379 31.4857C12.8349 31.4981 12.8318 31.512 12.8287 31.5259C12.7793 31.7374 12.6913 32.1295 12.6836 32.4151C12.9028 32.3795 13.1112 32.3456 13.315 32.3116L13.3566 32.026C13.3597 31.9967 13.352 31.813 13.3427 31.7852C13.2903 31.6416 13.21 31.5675 13.156 31.4302C13.176 31.4502 13.1992 31.4687 13.2254 31.4857C13.3211 31.5459 13.4415 31.5799 13.4863 31.6463C13.5712 31.7265 13.616 31.8223 13.6577 31.9458C13.6901 32.0152 13.7163 32.0847 13.7379 32.1557C13.8182 31.8825 13.8568 31.6725 14.0204 31.3499C14.1239 31.1677 14.2026 31.0736 14.3323 30.9238C14.3168 30.9609 14.3029 31.001 14.2875 31.0442C14.2535 31.1507 14.2211 31.2681 14.1995 31.3777C14.2088 31.3916 14.2165 31.4039 14.2242 31.4147C14.4882 31.6617 14.5824 31.7374 14.7414 32.0029C14.9251 31.6432 15.1829 31.0782 15.3882 30.8929C15.3897 30.8883 15.3913 30.8837 15.3928 30.879C15.3944 30.8636 15.3974 30.8497 15.4005 30.8343C15.4021 30.8374 15.4036 30.8389 15.4052 30.842C15.4098 30.8513 15.4113 30.8621 15.4113 30.8744C15.4052 30.879 15.399 30.8837 15.3913 30.8898C15.3913 30.8929 15.3913 30.8945 15.3897 30.896C15.3264 31.282 15.2477 31.6849 15.1906 32.0785C15.2925 32.0708 15.3959 32.0662 15.504 32.06C15.5117 31.9905 15.5194 31.9241 15.5225 31.8624C15.5256 31.8145 15.5317 31.6602 15.5148 31.6231C15.4962 31.5228 15.4685 31.461 15.4098 31.3885L15.348 31.3097C15.3542 31.3051 15.3866 31.3113 15.4098 31.319C15.4237 31.3221 15.4329 31.3267 15.436 31.3283C15.5379 31.3607 15.6043 31.4039 15.6815 31.4904C15.754 31.5799 15.7957 31.6617 15.8436 31.7729C15.8528 31.7868 15.876 31.8732 15.9053 31.9627C16.0118 31.6725 16.1307 31.4085 16.2681 31.0921C16.2635 31.1384 16.2588 31.1847 16.2542 31.2295C16.2295 31.5135 16.2357 31.7713 16.2449 32.0337C16.3684 32.0322 16.4935 32.0322 16.6247 32.0322C16.6664 32.0322 16.7081 32.0322 16.7497 32.0322C16.7497 32.0013 16.7482 31.9689 16.7467 31.938C16.7297 31.7821 16.6988 31.6648 16.6448 31.5135C16.5058 31.1615 16.3113 30.8775 16.1307 30.5595C16.1631 30.5919 16.2017 30.629 16.2449 30.6722L16.2573 30.683C16.1909 30.5456 16.1832 30.3804 16.1863 30.2168C16.2048 29.5869 16.123 29.6039 15.8328 29.0559C15.4221 28.2825 13.8645 28.8475 13.159 28.8907C12.682 28.9201 12.2729 28.9216 11.7944 28.917C11.3066 28.9123 10.9484 29.0405 10.5965 29.0374C10.2476 29.0358 10.1241 28.9309 9.96352 28.8259C9.77982 28.707 9.56987 28.5758 9.3059 28.3952C8.72237 27.9923 8.41208 28.3736 8.43678 28.9216C8.4553 29.3492 8.59733 29.7444 8.62203 30.047C8.69149 30.896 8.76868 30.825 9.12991 31.5737C9.15307 31.5922 9.19629 31.6416 9.2426 31.6972ZM17.5911 30.8945C17.6636 31.3113 17.7161 31.7265 17.7995 32.1094C17.9014 32.1233 18.0033 32.1372 18.1067 32.1526C18.099 32.0152 18.0928 31.8902 18.0897 31.7929C18.0758 31.5444 18.0573 31.302 18.031 31.0566C18.0033 30.9084 17.9863 30.7355 17.9292 30.5996C17.9554 30.6212 17.9832 30.6629 18.0094 30.7123C18.0619 30.8127 18.1082 30.9439 18.1314 31.018C18.2178 31.2526 18.2827 31.4873 18.3475 31.7327C18.3846 31.8886 18.4216 32.0492 18.4571 32.2097C18.7875 32.2669 19.1209 32.3363 19.4559 32.412L19.4544 31.8794L19.496 31.9674L19.7322 32.4768C19.8511 32.5046 19.9715 32.5324 20.0904 32.5632C20.2046 32.2252 20.3019 32.0723 20.5643 31.5737V31.5722L20.5751 31.5506L20.572 31.5799C20.5612 31.6216 20.5535 31.6617 20.5442 31.7018C20.4624 32.097 20.4655 32.3518 20.467 32.6559C20.66 32.7053 20.853 32.7547 21.0459 32.8041L21.1108 32.3579L21.1401 32.4305L21.3176 32.872C21.5415 32.9291 21.7653 32.9847 21.9892 33.0387C22.0509 32.7562 22.1127 32.3641 22.1451 32.2545C22.1497 32.2699 22.1574 32.2931 22.1667 32.3255C22.213 32.4876 22.2902 32.838 22.3442 33.1221C22.5943 33.1807 22.8413 33.2332 23.0867 33.2811L23.0852 33.278L23.0883 33.2811L23.1053 33.2842C23.1331 33.2749 23.1809 33.224 23.1871 33.2116C23.2643 33.1205 23.3168 33.0078 23.3646 32.8905C23.4433 32.7099 23.5051 32.5247 23.5545 32.3363C23.4171 32.324 23.3307 32.2746 23.3291 32.2777C23.1145 32.4552 22.7595 32.3981 22.6591 32.2962C22.5356 32.1681 22.5681 31.9627 22.3566 31.9982C22.1991 32.026 22.1374 31.9813 22.0432 31.8701C21.9336 31.7451 21.7252 31.5892 21.6372 31.5768C21.3578 31.5367 21.2821 31.2573 21.1278 31.0952C20.9919 30.9516 20.9672 30.8574 20.9132 30.7926C20.7573 30.6073 20.8375 30.3356 20.7989 30.3264C20.8005 30.3048 20.3451 30.1041 20.3559 29.8895C20.3636 29.7151 20.0456 29.7722 19.9993 29.7953C19.7724 29.9065 19.6736 30.0223 19.3864 29.8803C19.2259 29.8031 18.9465 29.6487 18.8014 29.7212C18.5204 29.8586 18.3058 29.7799 18.1221 29.6688C17.7717 29.4573 17.7563 29.5098 17.7578 29.8293C17.7593 30.1751 17.7223 30.5549 17.5942 30.8852L17.5911 30.8945ZM33.8218 33.1205C33.9762 33.1329 34.1337 33.1452 34.2911 33.156C34.3405 32.6497 34.3359 32.4645 34.3112 32.307C34.3081 32.3178 34.305 32.3301 34.3035 32.344C34.2788 32.5061 34.3081 32.4753 34.3143 32.6682C34.3189 32.8272 34.0997 33.0063 33.8218 33.1205ZM34.5088 31.9874C34.5752 32.0662 34.6338 32.1403 34.6801 32.2807L34.6848 32.2576C34.745 31.9458 34.7357 31.935 34.7156 31.7127C34.6647 31.1677 34.6431 31.2356 34.43 30.8235C34.43 30.8235 34.6508 31.6139 34.5088 31.9874ZM35.398 33.2271L35.5384 33.2363C35.6743 32.5308 35.7453 32.503 36.1559 31.5274C36.1328 31.6185 36.1127 31.7003 36.0957 31.779C35.929 32.5046 35.9568 32.7361 35.9676 33.2579C36.1853 33.2703 36.4029 33.2795 36.6191 33.2888C36.6669 33.0125 36.7024 32.7547 36.7348 32.4413C36.7626 32.1943 36.7842 31.9627 36.792 31.7127C36.792 31.6524 36.7827 31.5305 36.7688 31.4703C36.7657 31.4595 36.7503 31.4085 36.7441 31.4008C36.7287 31.3869 36.7302 31.3761 36.7086 31.3669C36.7225 31.3653 36.7456 31.3746 36.7549 31.3854C36.7688 31.4039 36.7935 31.4224 36.8043 31.4502C36.8043 31.4533 36.8074 31.4564 36.8089 31.461C36.8475 31.532 36.8691 31.6123 36.8877 31.6941C36.9525 31.9411 36.9803 32.1928 37.0034 32.449C37.0081 32.4536 37.0266 32.9569 37.0498 33.3058L37.2829 33.3166C37.3724 32.713 37.4449 32.2653 37.4805 31.4796C37.4882 31.5706 37.4974 31.6617 37.5082 31.7528C37.5684 32.2885 37.6487 32.801 37.6997 33.332L38.1659 33.349C38.2909 33.0387 38.4067 32.6142 38.3882 32.2638C38.3804 31.8578 38.3172 31.4564 38.277 31.055C38.277 31.055 38.2693 30.9717 38.2693 30.9639C38.2755 30.9871 38.2909 31.0272 38.2955 31.0504C38.3063 31.0859 38.3172 31.1199 38.328 31.1554C38.4391 31.5089 38.5703 31.85 38.6629 32.2113C38.7633 32.6435 38.7726 32.9677 38.7123 33.3691C38.9424 33.3783 39.1616 33.3861 39.37 33.3938C39.5599 33.4015 39.7451 33.4015 39.9242 33.3953C39.7497 32.4212 39.6031 31.4332 39.3437 30.4885C39.3777 30.5626 39.4117 30.6367 39.4456 30.7092C39.8285 31.5614 40.1187 32.4706 40.4413 33.3598C40.5077 33.3536 40.5725 33.3459 40.6389 33.3382C40.8211 32.8905 41.0187 32.1511 41.1406 31.8331C41.1391 31.8778 41.1375 31.9226 41.136 31.9689C41.1221 32.3657 41.0974 32.8396 41.0557 33.2749C41.4185 33.2147 41.7643 33.136 42.1085 33.0588C42.1271 32.7485 42.1363 32.4259 42.1085 32.2113C42.0931 31.9427 42.0653 31.7157 41.9959 31.461C41.9218 31.2279 41.8446 31.0674 41.684 30.9161C41.7427 30.9485 41.7952 30.984 41.8415 31.0242C41.948 31.1168 42.0283 31.2341 42.1101 31.3869C42.2382 31.637 42.3092 31.867 42.3772 32.1511C42.4389 32.4382 42.479 32.7037 42.5115 32.9692C42.8048 32.906 43.1012 32.8473 43.4068 32.8056L42.4651 30.8821L42.6211 31.1013L43.802 32.7593C43.9656 32.7454 44.1308 32.7361 44.3022 32.7331C44.4936 32.307 44.5307 32.3271 44.6742 31.6957C44.6758 31.7466 44.6773 31.796 44.6804 31.8423C44.7036 32.1897 44.7607 32.4289 44.7715 32.7423C44.9073 32.7516 45.0478 32.7639 45.1914 32.7809C45.2207 32.4382 45.2176 32.0446 45.1636 31.7759C45.0895 31.2557 44.9722 30.8065 44.8332 30.3094C44.8672 30.3773 44.9011 30.4453 44.9336 30.5116C45.1188 30.8929 45.2824 31.2573 45.4276 31.6818C45.5603 32.1001 45.639 32.449 45.6668 32.855L45.7178 32.8658C45.8752 32.5663 46.0342 32.0029 46.1037 31.5475C46.0929 31.4904 46.0806 31.4317 46.0636 31.3715C46.0821 31.4055 46.0991 31.4394 46.1161 31.4718C46.1438 31.2603 46.1516 31.0782 46.13 30.9655C46.045 30.5471 45.8258 30.6645 45.6915 29.2211C45.636 28.636 45.5758 28.2377 45.5248 27.9691C45.4445 27.5693 45.2053 27.5863 44.8687 27.7978C44.5924 27.9722 44.2373 28.193 43.8792 28.4075C43.1197 28.8598 42.2429 29.0791 41.9696 29.3338C41.6964 29.59 41.6454 29.712 41.4463 29.8803C41.2487 30.047 41.1051 29.854 41.1051 29.854C41.1051 29.854 41.0758 29.7923 41.1607 29.6734C41.2441 29.5561 41.1977 29.4434 41.1977 29.4434C41.1977 29.4434 41.2317 29.5113 39.2418 28.9741C38.5626 28.7904 38.0069 28.7703 37.3863 28.812C36.0957 28.9 36.0263 29.4357 35.7268 30.5147C35.574 31.0612 35.574 30.9485 35.5539 31.1723C35.5323 31.3946 35.6959 32.3687 35.665 32.6065C35.6342 32.8442 35.5678 32.7948 35.5029 32.9615C35.4613 33.065 35.4165 33.1576 35.398 33.2271ZM46.5344 33.0711L46.539 33.0727L46.556 32.9986L46.5344 33.0711ZM46.9728 31.8176C47.1565 31.4904 47.351 31.2804 47.6027 31.0921C47.5533 30.7617 47.5039 30.5379 47.5039 30.5379C47.5039 30.5379 47.5456 30.5549 47.419 30.7818C47.3356 30.9315 47.1287 31.4255 46.9728 31.8176ZM47.6166 31.1801C47.3989 31.4286 47.2507 31.6972 47.1365 32.1063C47.0546 32.4567 47.0191 32.8149 46.996 33.1761C47.0315 33.1823 47.067 33.1869 47.101 33.1915L47.2368 32.6343C47.2785 32.4598 47.3217 32.2854 47.3773 32.1156C47.3943 32.0523 47.4128 31.9921 47.4375 31.9334C47.4437 31.9241 47.4529 31.8871 47.4637 31.8747C47.4668 31.8701 47.4715 31.8578 47.4761 31.8531C47.4823 31.847 47.4838 31.8423 47.4915 31.8362L47.4807 31.8562L47.4745 31.8809L47.4699 31.9442C47.4699 31.9519 47.4699 31.9612 47.4699 31.9689C47.4699 32.0229 47.473 32.0847 47.4745 32.1356L47.5193 32.6759C47.5255 32.8473 47.5239 33.0449 47.5502 33.2255H47.5764L47.5888 33.2039C47.7725 32.6451 47.6999 31.7744 47.6166 31.1801ZM48.5073 33.0125L48.8577 32.0554C48.8068 31.9566 48.7713 31.83 48.7805 31.7065C48.7882 31.6046 48.7898 31.5027 48.796 31.4008C48.8021 31.2727 48.813 31.1446 48.8407 31.0149C48.8932 30.7802 48.8824 30.578 48.85 30.473C48.8176 30.3665 48.9797 30.2291 48.9503 30.0393C48.9195 29.8494 48.8191 29.6271 48.8191 29.6271C48.8191 29.6271 48.7234 28.6237 48.7929 28.2238C48.8624 27.8256 48.8793 27.6171 48.8624 27.2714C48.8515 27.0537 48.8299 26.3837 48.816 25.916C48.7327 26.3312 48.5428 26.6369 48.3931 26.8453C48.1353 27.2034 48.1183 27.6249 48.1646 27.9506C48.2341 28.4523 48.5474 28.9695 48.7435 29.4341C48.9442 29.9142 48.7574 30.8868 48.637 31.7281C48.5613 32.2669 48.5258 32.7547 48.5073 33.0125ZM49.0414 32.2514L48.9102 33.1005C49.0692 33.0711 49.2282 33.0418 49.3826 33.0125L49.4906 32.3919C49.449 32.4104 49.4042 32.3981 49.3641 32.3317C49.3039 32.2344 49.1418 32.273 49.0414 32.2514ZM14.181 32.1819L14.3307 32.1634C14.3076 31.9164 14.2999 31.7296 14.1887 31.4425C14.1872 31.4456 14.1872 31.4487 14.1872 31.4518C14.1347 31.7451 14.1609 31.9473 14.181 32.1819ZM15.4113 30.8744C15.4098 30.8914 15.4067 30.9115 15.4036 30.93L15.4391 30.8543C15.4299 30.859 15.4206 30.8651 15.4113 30.8744Z" fill="white"/>
</svg>
