<svg width="165" height="165" viewBox="0 0 165 165" fill="none" xmlns="http://www.w3.org/2000/svg">
<path d="M82.5 10.3125C101.529 10.3125 119.779 17.9179 133.235 31.4557C146.691 44.9935 154.25 63.3547 154.25 82.5C154.25 101.645 146.691 120.006 133.235 133.544C119.779 147.082 101.529 154.688 82.5 154.688C63.4707 154.688 45.2208 147.082 31.7651 133.544C18.3094 120.006 10.75 101.645 10.75 82.5C10.75 63.3547 18.3094 44.9935 31.7651 31.4557C45.2208 17.9179 63.4707 10.3125 82.5 10.3125ZM73.562 96.7416L57.6232 80.6953C57.0519 80.1204 56.3735 79.6644 55.6269 79.3533C54.8804 79.0422 54.0802 78.882 53.2721 78.882C52.464 78.882 51.6639 79.0422 50.9173 79.3533C50.1707 79.6644 49.4924 80.1204 48.921 80.6953C47.767 81.8563 47.1187 83.431 47.1187 85.073C47.1187 86.7149 47.767 88.2896 48.921 89.4506L69.216 109.869C69.7858 110.447 70.4636 110.906 71.2104 111.219C71.9572 111.532 72.7582 111.693 73.5671 111.693C74.3761 111.693 75.1771 111.532 75.9239 111.219C76.6706 110.906 77.3485 110.447 77.9183 109.869L119.943 67.5778C120.522 67.0053 120.983 66.3231 121.299 65.5706C121.614 64.8181 121.779 64.0102 121.783 63.1934C121.786 62.3766 121.629 61.5672 121.321 60.8118C121.012 60.0563 120.558 59.3699 119.984 58.792C119.41 58.2141 118.728 57.7562 117.978 57.4447C117.227 57.1332 116.423 56.9743 115.611 56.9772C114.799 56.98 113.996 57.1445 113.248 57.4613C112.5 57.778 111.821 58.2406 111.251 58.8225L73.562 96.7416Z" fill="#2FD274"/>
</svg>
