<svg width="69" height="43" viewBox="0 0 69 43" fill="none" xmlns="http://www.w3.org/2000/svg">
<path fill-rule="evenodd" clip-rule="evenodd" d="M5.01097 31.8194C4.4124 32.9352 4.40645 34.5803 5.05656 35.6685C5.54018 34.4039 4.90394 33.956 5.01097 31.8194ZM67.8651 37.3076C68.3587 34.5684 67.6907 30.7867 67.7502 28.5748C67.77 27.8652 66.9177 24.5731 66.2815 22.7773C66.0318 22.5117 65.786 22.2422 65.6552 21.9984C65.5145 21.7388 64.7058 21.1303 64.4045 21.1441C64.0656 21.158 62.4839 20.6387 62.0895 20.5079C62.0637 20.502 61.7545 20.3612 61.4275 20.2502C61.2392 20.1888 60.9974 20.1749 60.9201 20.1016C60.7794 20.0481 60.8111 20.0838 60.6882 20.0639C60.6129 20.052 60.5376 20.0164 60.5296 20.0124C60.49 19.9965 60.6704 19.9807 60.6723 19.9807C60.8289 19.941 60.7457 19.9708 60.8369 19.9331C60.8606 19.9232 60.9379 19.9232 60.9855 19.8994C60.9994 19.8915 61.1698 19.8558 61.3462 19.838C61.7129 19.8003 62.0954 19.7389 61.0628 19.4376C60.6525 19.3167 60.3592 19.2236 60.0896 19.1482C58.9837 18.9659 57.8797 18.7776 56.7757 18.5952C56.4189 18.5536 55.9194 18.4922 55.6578 18.4922C55.5528 18.4922 55.0136 18.4525 54.9938 18.4565C54.5181 18.3733 54.094 18.6369 53.6897 18.627C52.766 18.6071 51.9415 18.4208 50.8415 18.3634C50.2944 18.3356 49.7613 18.1651 49.3014 18.0879C48.6057 17.9689 48.0884 17.9372 48.025 17.9352C47.8565 17.9273 48.693 17.9352 49.6423 17.9253C50.7067 17.9134 51.7294 17.8916 51.771 17.8837C51.8781 17.8619 52.8037 17.8005 52.9127 17.8024C53.2159 17.8084 53.6579 17.6914 53.9077 17.6895C54.1594 17.6875 54.6807 17.5666 54.9899 17.5666C55.3902 17.5666 55.4616 17.5626 55.854 17.5091C56.2029 17.4595 56.5795 17.5765 56.9858 17.4457C57.1146 17.404 58.724 17.297 59.0768 17.297C59.2473 17.2336 59.5921 17.3228 59.9727 17.2812C60.3156 17.2455 60.6882 17.075 61.0529 17.075C61.7327 17.077 62.3392 17.2673 62.4383 17.0988C62.6167 16.7896 62.9913 16.4368 62.4086 16.0028C62.3987 15.9968 62.2045 15.862 62.1589 15.6301C62.1272 15.4755 62.2619 15.2555 62.1846 15.0771C62.0479 14.758 61.7387 14.4647 61.6574 14.3339C61.0985 13.5767 60.5237 12.8156 60.0064 12.1378C58.9222 10.7167 53.3131 5.67241 52.3815 5.31168C51.2597 4.11255 49.7216 4.19778 48.8812 3.5774C46.7466 2.00169 44.6219 1.81736 43.0521 1.37338C42.0789 1.09788 41.52 0.933372 40.9392 0.78472C38.9414 0.269392 37.7363 0.071189 36.7036 0.017674C35.1715 -0.065571 34.016 0.172272 31.1995 0.172272C30.7437 0.172272 29.1719 0.289212 27.5982 0.580571C26.0661 0.862019 24.534 1.31987 23.9235 1.49231C22.1635 1.99574 19.9376 2.97883 19.4184 3.25037C19.0378 3.45055 18.7009 3.5556 18.3481 3.68641C17.3907 4.03723 17.5156 4.35039 17.5196 4.65166C17.5255 4.9569 17.4225 5.24825 18.247 5.27402C18.469 5.27997 18.9367 5.46826 19.5016 5.46826C19.9456 5.46826 20.5243 5.57132 21.0932 5.57132C21.8067 5.57132 22.324 5.49403 23.0058 5.57331C23.3824 5.61691 23.7273 5.63673 24.0662 5.64862C24.534 5.66646 24.9879 5.67241 25.4834 5.71601C26.405 5.79926 27.2949 6.04305 27.3822 6.04305C28.2146 6.04305 28.1056 6.1917 28.3573 6.21747C28.617 6.38198 29.497 6.43747 29.7051 6.35224C29.7051 6.35026 29.4871 6.51477 29.1759 6.51477C28.6487 6.51477 28.2602 6.44342 27.735 6.56234C27.067 6.71496 26.736 6.269 25.7589 6.70703C25.2574 6.93298 23.3983 6.61387 22.6867 6.84577C22.5519 6.89136 21.8404 6.88938 21.107 6.8755C20.445 6.86559 19.7632 6.84577 19.4838 6.84577C18.794 6.84577 18.3144 6.98848 17.803 7.09551C17.4998 7.16091 17.1846 7.21046 16.808 7.21046C16.5206 7.21046 16.2431 7.2283 15.9478 7.2283C15.8963 7.09551 14.4752 7.21046 14.4375 7.22632C14.4256 7.23028 14.4117 7.23623 14.3999 7.24019C14.1699 7.32146 13.944 7.41263 13.7022 7.50975C13.4306 7.61876 13.1432 7.7357 12.8182 7.85264C12.5566 8.0667 12.1245 8.15193 11.8827 8.32238C11.1136 8.86348 10.6776 9.29952 10.5944 9.50367C10.527 9.67611 8.74908 11.0397 7.51824 12.6194C7.11589 13.1367 7.16346 13.7095 6.91769 14.1436C6.55894 14.7779 5.97226 15.2179 5.73045 15.5806C5.21909 16.3476 4.94755 16.859 6.28938 16.9422C7.1595 16.9977 7.9087 16.9383 8.79071 16.9799C9.56766 17.0156 9.80352 17.3386 10.8639 17.3228C11.1989 17.3525 11.6805 17.3644 12.0135 17.3941C12.4575 17.4358 12.8816 17.5547 13.3216 17.5963C13.3533 17.6062 13.3811 17.6161 13.4088 17.628C13.7061 17.7509 16.6812 17.8639 17.3471 18.0125C17.472 18.0403 18.2589 17.8817 19.0854 17.8996C20.1041 17.9233 21.2002 18.1235 21.3944 18.177C20.3023 18.2226 15.6723 18.3237 14.9766 18.3594C14.1878 18.403 13.2463 18.5417 12.4495 18.51C12.1304 18.4961 11.3119 18.73 10.521 18.8252C9.90461 18.9005 9.27432 18.8351 9.1118 18.8826L8.4498 18.9481C8.11285 18.9481 7.37355 19.0908 6.61245 19.1562C5.99604 19.2077 5.49657 19.2018 5.0526 19.1879C4.47979 19.1661 4.28753 19.3127 3.97239 19.4079C3.75238 19.4773 3.52049 19.5764 3.36985 19.7369C3.05669 20.0738 2.78515 20.4366 2.61073 20.8409C2.08946 22.0479 1.71882 23.364 1.18962 24.7257C0.678254 26.0457 0.371039 28.7591 0.101483 30.6975C-0.144289 32.4675 0.123286 35.2582 0.204549 37.0143C0.315543 39.4066 0.628703 40.6057 0.886367 41.5194C1.14998 41.0854 1.41557 40.6156 1.56422 40.3599C1.59395 40.3064 1.61972 40.2608 1.63954 40.2291C1.5781 40.6017 1.27485 41.4362 1.04889 42.0883L1.05682 42.112C1.16782 42.1101 1.28079 42.1081 1.3898 42.1021C1.63359 42.0883 1.87144 42.0585 2.10532 42.0169C2.1073 41.6066 2.03396 40.8297 2.02604 40.7544C2.02604 40.7544 1.96459 39.8664 1.95468 39.7772C1.94279 39.688 1.93486 39.5909 1.92297 39.4977C1.91504 39.4264 1.9091 39.357 1.89919 39.2936C1.95666 39.363 2.03 39.6464 2.05577 39.7435C2.15883 40.0448 2.24802 40.352 2.33721 40.6612C2.41055 40.9327 2.56118 41.4738 2.65632 41.9C2.91002 41.8385 3.14786 41.7692 3.36985 41.7018L3.32625 40.2569L3.32228 40.1023L3.91491 41.5313C4.01203 41.5016 4.1032 41.4738 4.18843 41.4501C4.0814 40.6453 3.93077 39.8525 3.58986 39.1549C3.54824 39.0696 3.50463 38.9864 3.45706 38.9031C3.99221 39.4997 4.32717 40.2589 4.60069 41.0616C4.60862 41.0279 4.61853 40.9942 4.62646 40.9585C4.72953 40.6156 4.83656 40.3064 5.01494 40.0131C5.08629 39.8961 5.1517 39.8069 5.25278 39.7316C5.26864 39.7138 5.29044 39.6979 5.31621 39.688C5.37369 39.6623 5.44306 39.6543 5.49063 39.6583C5.46684 39.5731 5.44504 39.4839 5.43315 39.3947C5.36972 38.9091 5.36179 38.4076 5.31621 38.2174C5.25278 37.9498 5.20521 37.7219 5.15566 37.4582C5.11008 37.2184 5.04863 36.9191 5.03079 36.7625C5.00701 37.0301 4.92575 37.1649 4.86232 37.3294C4.81475 37.4523 4.74935 37.5435 4.69187 37.6446C4.64628 37.7238 4.61259 37.815 4.55907 37.8824C4.48177 37.9855 4.40645 38.0905 4.30735 38.1718C4.23204 38.2332 4.1369 38.2748 4.04771 38.3264C4.0814 38.15 4.13293 37.9756 4.14483 37.8249C4.16266 37.591 4.12897 37.3968 4.10915 37.2125C4.08537 36.9766 4.01005 36.7943 3.95257 36.6079C3.88716 36.3979 3.83761 36.1917 3.77022 36.0034C3.72662 35.8805 3.71473 35.7577 3.68301 35.6268C3.64734 35.4722 3.5958 35.3077 3.59779 35.1214C3.60175 34.8499 3.65725 34.5367 3.79797 34.1443C4.04374 33.4644 4.27366 32.8203 4.36681 32.2257C4.45006 31.7143 4.45601 31.2386 4.46592 30.7966C4.47186 30.5826 4.59078 30.4319 4.60664 30.2318C4.62646 30.0078 4.6661 29.766 4.70574 29.5698C4.85637 28.8126 5.0526 28.2438 5.63928 27.8097C6.09911 27.3519 6.74525 27.4906 7.62131 27.4232C8.03754 27.3915 8.53106 27.1992 9.06621 27.118C9.73019 27.0149 10.0255 27.1497 10.638 27.231C11.0126 27.2825 11.5319 27.2845 11.5953 27.3102C11.6191 27.3202 12.5169 27.4668 13.498 27.56C14.4791 27.6531 15.5435 27.6948 15.7972 27.7166C16.9666 27.8157 18.2054 27.6888 19.4025 27.6888C19.7375 27.6888 20.9961 27.7721 21.9811 27.9267C23.4875 28.1645 23.6222 28.7631 25.1107 29.2189C26.7955 29.7343 26.4585 31.1455 26.7657 31.9086C26.8787 32.0572 27.4258 33.292 27.6557 33.841C27.8915 34.4059 28.3593 35.716 28.8033 36.0431C28.9539 35.9241 28.9499 35.6605 29.0054 35.4742C29.0431 35.3394 29.1263 35.3513 29.2572 35.2958C29.3781 35.2483 29.4336 35.1829 29.5525 35.1948C30.1629 35.2522 29.9429 35.7517 29.931 36.158C29.931 36.2016 29.931 36.2452 29.937 36.2869C29.9429 36.3305 29.9251 36.4236 29.9192 36.495C29.9152 36.5306 29.9172 36.6079 29.9548 36.6317C30.2957 36.8438 30.1372 37.1728 30.4563 37.375C30.5732 37.5038 30.7258 37.6287 30.7595 37.7853C30.8329 38.1183 30.7873 38.4057 30.5514 38.6554C30.3631 38.8972 30.4305 39.2777 30.4979 39.5414C30.5891 39.906 30.8864 40.1895 31.0093 40.4987C31.1222 40.7821 31.0568 41.2538 30.7655 41.4045C30.6525 41.4639 30.5475 41.4956 30.4503 41.5095C30.4543 41.8266 30.4444 42.1438 30.4127 42.4054C30.4048 42.4688 30.3651 42.6809 30.3255 42.8494C30.5712 42.887 30.815 42.9187 31.0549 42.9425C31.2213 42.6789 31.2848 42.2726 31.3224 41.9535C31.3581 41.5412 31.3621 41.121 31.261 40.7246C31.2927 40.7663 31.3224 40.8118 31.3502 40.8594C31.5266 41.1726 31.6118 41.567 31.6693 41.9436C31.7149 42.3023 31.7387 42.6472 31.703 42.9921C31.816 42.996 31.9289 43 32.0419 43C31.9587 42.3697 32.0498 41.7751 32.2817 41.1726L32.7079 40.358L32.7455 40.3183L32.7198 40.4234L32.5017 41.2697C32.4542 41.9277 32.4244 42.3657 32.7198 42.9762C32.91 42.9623 33.0964 42.9386 33.2807 42.9088C33.3501 42.5659 33.3758 42.3558 33.3956 41.8286C33.4095 41.8801 33.4234 41.9317 33.4392 41.9812C33.5344 42.2785 33.6434 42.5421 33.7425 42.8137C33.9486 42.7622 34.1508 42.6987 34.347 42.6234C34.3985 42.2112 34.4917 41.9277 34.5056 41.4917L34.5175 41.3946C34.5214 41.4144 34.5373 41.4699 34.5452 41.4818C34.5492 41.4917 34.5531 41.5016 34.5571 41.5095C34.7157 41.9297 34.8207 42.0268 34.9337 42.3836C35.1834 42.2785 35.4589 42.1695 35.7602 42.0724C35.7622 41.9416 35.7503 41.8365 35.667 41.5234C35.6928 41.5472 35.7146 41.567 35.7384 41.5848C35.9425 41.7513 36.0734 41.7513 36.2339 41.9337C36.4044 41.8901 36.5808 41.8524 36.7651 41.8207C36.7393 41.0556 36.6164 40.5046 36.224 39.47C36.2854 39.579 36.3429 39.6821 36.3984 39.7792C36.8305 40.5581 37.0763 41.0477 37.2428 41.7612C37.544 41.7355 37.8612 41.7335 38.1961 41.7652C38.2298 41.571 38.2496 41.3767 38.2695 41.1785C38.2992 40.8297 38.3131 40.4967 38.315 40.1479C38.3012 39.9278 38.3012 39.6801 38.2496 39.47C38.2794 39.5057 38.3051 39.5691 38.3329 39.6405C38.3904 39.801 38.4399 40.0131 38.4558 40.1221C38.537 40.4769 38.5866 40.8138 38.6262 41.1765C38.648 41.3985 38.6619 41.6126 38.6698 41.8286C38.7887 41.8484 38.9096 41.8742 39.0325 41.9039C39.1415 41.9297 39.2525 41.9555 39.3675 41.9812C39.417 41.7592 39.4547 41.5749 39.4527 41.5234C39.5419 41.0041 39.5736 40.6037 39.4626 40.0844C39.4983 40.1479 39.528 40.2133 39.5558 40.2826C39.7163 40.6751 39.7817 41.121 39.8075 41.5591C39.8174 41.7295 39.8194 41.902 39.8214 42.0724L39.9918 42.1041C40.1563 41.3926 40.309 40.352 40.4735 39.9695C40.4814 39.9913 40.4873 40.0408 40.4933 40.1102C40.5151 40.4789 40.4913 41.4302 40.4596 42.1834C40.6776 42.2191 40.9036 42.2508 41.1335 42.2825C41.191 41.9575 41.2484 41.6324 41.3139 41.3093C41.3198 41.2955 41.3317 41.0636 41.3317 41.0259C41.3337 41.018 41.3238 40.905 41.3218 40.8971C41.302 40.8336 41.2702 40.8138 41.2306 40.7682C41.1969 40.7266 41.1791 40.6969 41.1573 40.6434C41.1414 40.5641 41.1295 40.5244 41.1216 40.4372C41.1335 40.4749 41.1711 40.57 41.2009 40.5998C41.2029 40.6017 41.2048 40.6037 41.2068 40.6037C41.2306 40.6374 41.2504 40.6533 41.2821 40.6691C41.3594 40.7028 41.3931 40.7008 41.4546 40.7841C41.4962 40.8396 41.52 40.8951 41.5418 40.9664C41.5834 41.0735 41.6052 41.1785 41.623 41.2935C41.7162 41.6364 41.7499 42.0011 41.7697 42.3618C41.8807 42.3757 41.9937 42.3876 42.1067 42.3994C42.1344 42.3202 42.2117 42.2488 42.2117 42.2488C42.2117 42.2488 42.6081 41.7018 42.7449 41.5809C42.7726 41.5551 42.7984 41.5333 42.8222 41.5155C42.8797 40.8594 42.9114 40.2034 42.8658 39.5612C42.8896 39.6543 42.9114 39.7495 42.9332 39.8446C43.0224 40.2569 43.0838 40.679 43.1274 41.1052C43.1492 41.0675 43.1631 41.0358 43.1631 41.0219C43.1631 40.9823 43.4366 39.7296 43.28 39.3412C43.1353 38.9804 42.8995 38.8516 42.7429 38.4136C42.3941 38.3521 41.8668 38.2094 41.5537 37.8764C41.0542 37.3472 41.1969 37.5534 39.9621 36.6377C38.7293 35.722 39.1277 35.4683 38.5767 34.6735C38.0237 33.8747 36.0218 32.6042 36.0218 32.6042C36.0218 32.6042 35.8058 32.9273 34.8901 33.0403C33.9764 33.1533 33.3104 32.7331 33.1657 32.6617C33.0191 32.5924 32.7911 32.5388 32.6405 32.636C32.4879 32.7331 32.0875 32.6479 31.806 32.626C31.5246 32.6042 31.3561 32.2752 31.3561 32.2752C31.1659 32.3505 30.9756 32.297 30.9122 32.1424C30.8507 31.9898 30.8091 31.7579 30.7893 31.5696C30.7556 31.2783 30.7893 30.977 31.3284 30.5033C31.8715 30.0296 32.3987 28.5292 32.5196 28.1308C32.6385 27.7324 32.916 27.6056 33.1756 27.2567C33.4353 26.9059 33.689 26.8722 33.7544 26.7236C33.8178 26.5709 34.0398 26.5174 34.0398 26.5174C34.1488 26.0616 33.36 25.2509 33.0785 25.0884C33.6176 24.9893 34.3906 25.4709 34.7276 25.8574C34.7276 25.8574 34.9357 25.9862 35.0823 25.8951C35.1735 25.8376 35.3242 25.8316 35.4272 25.8316C35.5402 25.8356 35.5342 25.9922 35.5144 26.0655C35.9465 25.4848 34.9892 24.7197 34.9892 24.7197C34.9892 24.7197 35.5362 24.8981 36.0238 25.3441C36.5094 25.79 36.44 26.458 36.44 26.458C36.44 26.458 37.2943 26.4798 38.1822 26.0061C39.0702 25.5324 39.6053 25.4412 40.309 25.461C41.0126 25.4848 42.0413 25.9803 43.5892 26.1944C45.1352 26.4104 45.4067 26.5511 46.9765 26.68C47.9893 26.7632 48.6335 26.7612 49.0676 26.783C50.4391 26.8564 50.8256 27.118 52.5064 26.8841C54.0543 26.67 55.8243 26.9475 56.7281 26.8722C57.6319 26.7989 58.8984 26.6582 59.1918 26.67C59.4831 26.68 59.6556 26.7018 60.1313 26.6264C61.4097 26.4183 62.2837 26.9713 62.8268 27.7384C64.0517 29.4588 62.9874 31.5835 63.0944 33.518C63.1598 34.731 63.8535 36.8121 63.9328 37.0876C64.0101 37.3671 64.133 37.49 63.9883 38.3363C63.9883 38.3363 63.7306 38.6237 63.7207 39.0577C63.7088 39.4918 64.1013 39.8981 64.0319 40.2252C63.9665 40.5502 64.0259 40.792 63.8456 41.1389L63.9764 42.2766C64.2023 42.2369 64.4243 42.2032 64.6364 42.1794C64.6265 42.0447 64.6146 41.9317 64.6027 41.8564C64.5591 41.571 64.5333 41.1627 64.4303 40.899C64.4085 40.8416 64.3193 40.6196 64.2777 40.5918C64.2142 40.5126 64.1587 40.4709 64.0715 40.4531C64.1191 40.4452 64.1964 40.4551 64.2559 40.4808C64.2816 40.4907 64.3034 40.5066 64.3213 40.5244C64.4204 40.5998 64.4858 40.6889 64.5571 40.8059C64.7355 41.0992 64.8425 41.4084 64.9456 41.7513C64.9535 41.787 64.9634 41.8207 64.9714 41.8544C65.2469 41.0517 65.5799 40.2925 66.115 39.6979C66.0694 39.7792 66.0238 39.8624 65.9842 39.9477C65.6433 40.6453 65.4907 41.4382 65.3856 42.2429C65.4689 42.2666 65.56 42.2944 65.6572 42.3241L66.2518 40.8951L66.2458 41.0497L66.2022 42.4966C66.4044 42.558 66.6224 42.6194 66.8503 42.6769C67.2487 41.0001 67.5044 39.3174 67.8096 37.6128L67.8651 37.3076ZM5.49261 39.6623C5.40738 39.6821 5.35585 39.7217 5.2944 39.799C5.25278 39.8248 5.16359 40.0488 5.14179 40.1062C5.03674 40.3698 5.01296 40.7781 4.96935 41.0636C4.95746 41.1389 4.94557 41.2518 4.93566 41.3866C5.14972 41.4104 5.36972 41.4441 5.59765 41.4837L5.61549 41.3232C5.57784 41.2558 5.53027 41.1983 5.49063 41.1567C5.40143 40.8792 5.57982 40.5958 5.58774 40.576C5.60955 40.5106 5.61549 40.2648 5.56396 39.9516C5.55009 39.8605 5.52036 39.7633 5.49261 39.6623ZM6.85426 40.3936L7.11787 41.1151C7.15553 41.1547 7.18328 41.1944 7.18526 41.2499C7.18923 41.3965 7.36563 41.5313 7.32995 41.6899L7.36959 41.7969C7.61933 41.8306 7.87303 41.8544 8.13069 41.8623C8.06925 41.3708 7.94438 40.6711 8.00384 40.4214C8.01573 40.4392 8.02763 40.459 8.0415 40.4808C8.22186 40.7881 8.45178 41.4798 8.64404 41.8663C8.96116 41.8623 9.27432 41.8564 9.52208 41.8524C9.41108 41.4282 9.2763 41.018 9.14153 40.5958C9.17324 40.6374 9.20693 40.679 9.23865 40.7187C9.53397 41.0972 9.8392 41.4461 10.1127 41.8465C10.2277 41.8484 10.3506 41.8504 10.4814 41.8544C10.5508 41.1825 10.638 41.129 10.5884 40.7147C10.3387 40.4709 10.0612 40.2014 9.93236 39.9992C9.8392 39.8565 9.74605 39.7534 9.62514 39.5354C9.51415 39.3352 9.16135 38.7148 8.84224 38.4532C8.3507 38.0489 8.0633 37.3175 8.12078 37.1609C7.76203 37.4582 7.35968 38.0945 7.35572 38.0984C7.30418 38.1539 7.14166 38.5999 7.03463 39.0102C6.96129 39.2936 6.92958 39.5632 6.91571 39.6583C6.87606 39.916 6.85823 40.1974 6.85426 40.3936ZM11.0562 41.234C11.072 41.3807 11.0859 41.5848 11.1057 41.8702H11.1236C11.1691 41.7533 11.2127 41.6522 11.2583 41.561C11.2009 41.4501 11.1255 41.3311 11.0562 41.234ZM11.8668 40.6969C11.9639 40.5839 12.0749 40.4571 12.2018 40.2945C12.1701 40.3679 12.1403 40.4352 12.1126 40.4967C12.0571 40.6255 12.0115 40.7345 11.9758 40.8317C12.0234 40.8891 12.065 40.9426 12.0888 40.9724C12.182 41.0953 12.2176 41.1587 12.2989 41.2717C12.3504 41.345 12.4912 41.4699 12.624 41.5551L12.6497 41.571C12.6775 41.349 12.6695 41.1309 12.6358 40.8792C12.5665 40.4471 12.4515 40.132 12.2454 39.7792C12.291 39.8169 12.3346 39.8545 12.3762 39.8942C12.62 40.1241 12.7944 40.3738 12.9629 40.7226C13.1076 41.0457 13.1928 41.3351 13.2324 41.6601C13.3097 41.1944 13.4227 40.5462 13.4683 40.461C13.4842 40.4273 13.5139 40.2034 13.5238 40.1518C13.5317 40.1915 13.5436 40.243 13.5535 40.2945C13.5654 40.358 13.5793 40.4234 13.5813 40.4769C13.611 40.9327 13.7339 41.4461 13.827 41.9138C13.9281 41.9119 14.0272 41.9079 14.1204 41.9039C14.0748 41.2935 13.9757 40.8832 13.7894 40.2192C13.8251 40.2767 13.8568 40.3322 13.8925 40.3837C14.2195 40.901 14.5069 41.2459 14.7388 41.8524C15.0004 41.8167 15.2462 41.781 15.4801 41.7454C15.4543 41.6106 15.4305 41.4996 15.4246 41.4857C15.3473 41.1904 15.262 41.0239 15.0698 40.8277C15.1074 40.8376 15.1471 40.8495 15.1867 40.8654C15.379 40.9387 15.5732 41.0655 15.7159 41.24C15.7516 41.2836 15.7853 41.3252 15.819 41.3708C15.9934 40.9962 16.2352 40.6275 16.4631 40.4055L16.4711 40.3976L16.4949 40.3639L16.4869 40.4075L16.483 40.4253C16.479 40.4412 16.475 40.459 16.4711 40.4769C16.4076 40.7484 16.2947 41.2518 16.2848 41.6185C16.5662 41.5729 16.8338 41.5293 17.0954 41.4857L17.1489 41.119C17.1529 41.0814 17.143 40.8455 17.1311 40.8099C17.0637 40.6255 16.9606 40.5304 16.8913 40.354C16.917 40.3798 16.9468 40.4035 16.9805 40.4253C17.1033 40.5026 17.2579 40.5462 17.3154 40.6315C17.4244 40.7345 17.4819 40.8574 17.5354 41.016C17.577 41.1052 17.6107 41.1944 17.6385 41.2855C17.7416 40.9347 17.7911 40.6652 18.0012 40.2509C18.134 40.017 18.2351 39.8961 18.4016 39.7039C18.3818 39.7514 18.3639 39.803 18.3441 39.8585C18.3005 39.9952 18.2589 40.1459 18.2311 40.2866C18.243 40.3044 18.2529 40.3203 18.2628 40.3342C18.6018 40.6513 18.7227 40.7484 18.9268 41.0893C19.1627 40.6275 19.4937 39.9021 19.7573 39.6642C19.7593 39.6583 19.7612 39.6523 19.7632 39.6464C19.7652 39.6266 19.7692 39.6087 19.7731 39.5889C19.7751 39.5929 19.7771 39.5949 19.7791 39.5988C19.785 39.6107 19.787 39.6246 19.787 39.6405C19.7791 39.6464 19.7712 39.6523 19.7612 39.6603C19.7612 39.6642 19.7612 39.6662 19.7593 39.6682C19.678 40.1637 19.5769 40.681 19.5036 41.1864C19.6344 41.1765 19.7672 41.1706 19.9059 41.1627C19.9158 41.0735 19.9258 40.9882 19.9297 40.909C19.9337 40.8475 19.9416 40.6493 19.9198 40.6017C19.896 40.4729 19.8603 40.3936 19.785 40.3005L19.7057 40.1994C19.7137 40.1934 19.7553 40.2014 19.785 40.2113C19.8029 40.2152 19.8148 40.2212 19.8187 40.2232C19.9495 40.2648 20.0348 40.3203 20.1339 40.4313C20.227 40.5462 20.2805 40.6513 20.342 40.794C20.3539 40.8118 20.3836 40.9228 20.4213 41.0378C20.558 40.6652 20.7106 40.3262 20.887 39.9199C20.8811 39.9794 20.8751 40.0388 20.8692 40.0963C20.8375 40.461 20.8454 40.792 20.8573 41.129C21.0159 41.127 21.1764 41.127 21.3449 41.127C21.3984 41.127 21.4519 41.127 21.5054 41.127C21.5054 41.0873 21.5035 41.0457 21.5015 41.0061C21.4797 40.8059 21.44 40.6553 21.3707 40.461C21.1923 40.0091 20.9425 39.6444 20.7106 39.2361C20.7523 39.2777 20.8018 39.3253 20.8573 39.3808L20.8732 39.3947C20.7879 39.2183 20.778 39.0062 20.782 38.7961C20.8058 37.9874 20.7007 38.0092 20.3281 37.3056C19.8009 36.3126 17.801 37.038 16.8952 37.0935C16.2828 37.1312 15.7575 37.1332 15.1431 37.1272C14.5168 37.1213 14.057 37.2858 13.6051 37.2818C13.1571 37.2799 12.9986 37.1451 12.7924 37.0103C12.5566 36.8577 12.287 36.6892 11.9481 36.4573C11.1989 35.94 10.8005 36.4296 10.8322 37.1332C10.856 37.6822 11.0383 38.1896 11.07 38.5781C11.1592 39.6682 11.2583 39.577 11.7221 40.5383C11.7519 40.5621 11.8074 40.6255 11.8668 40.6969ZM22.5856 39.6662C22.6788 40.2014 22.7462 40.7345 22.8532 41.2261C22.984 41.2439 23.1148 41.2618 23.2476 41.2816C23.2377 41.1052 23.2298 40.9446 23.2258 40.8198C23.208 40.5007 23.1842 40.1895 23.1505 39.8743C23.1148 39.6841 23.093 39.4621 23.0197 39.2877C23.0534 39.3154 23.0891 39.3689 23.1228 39.4323C23.1902 39.5612 23.2496 39.7296 23.2794 39.8248C23.3903 40.1261 23.4736 40.4273 23.5568 40.7425C23.6044 40.9426 23.652 41.1488 23.6976 41.3549C24.1217 41.4282 24.5498 41.5174 24.9799 41.6146L24.978 40.9308L25.0315 41.0437L25.3347 41.6978C25.4873 41.7335 25.6419 41.7692 25.7945 41.8088C25.9412 41.3747 26.0661 41.1785 26.403 40.5383V40.5363L26.4169 40.5086L26.4129 40.5462C26.3991 40.5998 26.3892 40.6513 26.3773 40.7028C26.2722 41.2102 26.2762 41.5373 26.2782 41.9277C26.5259 41.9911 26.7737 42.0546 27.0214 42.118L27.1047 41.5452L27.1423 41.6383L27.3703 42.2052C27.6577 42.2785 27.9451 42.3499 28.2324 42.4193C28.3117 42.0566 28.391 41.5531 28.4326 41.4124C28.4386 41.4322 28.4485 41.4619 28.4604 41.5036C28.5198 41.7117 28.6189 42.1616 28.6883 42.5263C29.0094 42.6016 29.3265 42.669 29.6417 42.7304L29.6397 42.7265L29.6437 42.7304L29.6655 42.7344C29.7011 42.7225 29.7626 42.6571 29.7705 42.6413C29.8696 42.5243 29.937 42.3796 29.9984 42.229C30.0995 41.9971 30.1788 41.7592 30.2422 41.5174C30.0658 41.5016 29.9548 41.4382 29.9529 41.4421C29.6773 41.6701 29.2215 41.5967 29.0926 41.4659C28.9341 41.3014 28.9757 41.0378 28.7042 41.0834C28.502 41.1191 28.4227 41.0616 28.3018 40.9189C28.1611 40.7583 27.8935 40.5581 27.7805 40.5423C27.4218 40.4907 27.3247 40.132 27.1265 39.9239C26.9521 39.7396 26.9203 39.6187 26.851 39.5354C26.6508 39.2976 26.7539 38.9487 26.7043 38.9368C26.7063 38.9091 26.1216 38.6514 26.1355 38.3759C26.1454 38.152 25.7371 38.2253 25.6776 38.255C25.3863 38.3977 25.2594 38.5464 24.8907 38.364C24.6846 38.2649 24.3259 38.0667 24.1396 38.1599C23.7788 38.3363 23.5033 38.2352 23.2675 38.0925C22.8175 37.821 22.7977 37.8883 22.7997 38.2986C22.8017 38.7426 22.7541 39.2302 22.5896 39.6543L22.5856 39.6662ZM43.4247 42.5243C43.6229 42.5402 43.8251 42.556 44.0273 42.5699C44.0907 41.9198 44.0847 41.6819 44.053 41.4798C44.0491 41.4937 44.0451 41.5095 44.0431 41.5273C44.0114 41.7355 44.0491 41.6958 44.057 41.9436C44.0629 42.1477 43.7815 42.3776 43.4247 42.5243ZM44.3067 41.0695C44.3919 41.1706 44.4673 41.2657 44.5267 41.4461L44.5327 41.4164C44.61 41.016 44.5981 41.0021 44.5723 40.7167C44.5069 40.017 44.4792 40.1043 44.2056 39.5751C44.2056 39.5751 44.4891 40.5898 44.3067 41.0695ZM45.4484 42.6611L45.6287 42.673C45.8032 41.7672 45.8943 41.7315 46.4215 40.4789C46.3918 40.5958 46.366 40.7008 46.3442 40.8019C46.1302 41.7335 46.1659 42.0308 46.1797 42.7007C46.4592 42.7166 46.7387 42.7285 47.0162 42.7404C47.0776 42.3856 47.1232 42.0546 47.1648 41.6522C47.2005 41.3351 47.2282 41.0378 47.2381 40.7167C47.2381 40.6394 47.2262 40.4828 47.2084 40.4055C47.2044 40.3916 47.1846 40.3262 47.1767 40.3163C47.1569 40.2985 47.1589 40.2846 47.1311 40.2727C47.1489 40.2707 47.1787 40.2826 47.1906 40.2965C47.2084 40.3203 47.2401 40.3441 47.254 40.3798C47.254 40.3837 47.258 40.3877 47.2599 40.3936C47.3095 40.4848 47.3372 40.5879 47.361 40.6929C47.4443 41.01 47.4799 41.3331 47.5097 41.6621C47.5156 41.6681 47.5394 42.3142 47.5691 42.7622L47.8684 42.776C47.9834 42.0011 48.0765 41.4263 48.1221 40.4174C48.132 40.5344 48.1439 40.6513 48.1578 40.7682C48.2351 41.456 48.3382 42.114 48.4036 42.7958L49.0021 42.8176C49.1627 42.4193 49.3113 41.8742 49.2876 41.4243C49.2777 40.903 49.1964 40.3877 49.1449 39.8724C49.1449 39.8724 49.1349 39.7653 49.1349 39.7554C49.1429 39.7851 49.1627 39.8367 49.1686 39.8664C49.1825 39.912 49.1964 39.9556 49.2103 40.0012C49.353 40.4551 49.5214 40.8931 49.6404 41.3569C49.7692 41.9119 49.7811 42.3281 49.7038 42.8434C49.9991 42.8553 50.2806 42.8652 50.5481 42.8751C50.7919 42.885 51.0298 42.885 51.2597 42.8771C51.0357 41.6264 50.8474 40.358 50.5144 39.1449C50.558 39.2401 50.6016 39.3352 50.6453 39.4284C51.1368 40.5225 51.5094 41.6899 51.9237 42.8315C52.0089 42.8236 52.0921 42.8137 52.1774 42.8038C52.4112 42.229 52.6649 41.2796 52.8215 40.8713C52.8195 40.9288 52.8176 40.9863 52.8156 41.0457C52.7977 41.5551 52.766 42.1636 52.7125 42.7225C53.1783 42.6452 53.6223 42.5441 54.0643 42.445C54.088 42.0466 54.0999 41.6324 54.0643 41.3569C54.0444 41.012 54.0088 40.7207 53.9196 40.3936C53.8244 40.0943 53.7253 39.8882 53.5192 39.694C53.5945 39.7356 53.6619 39.7812 53.7214 39.8327C53.8581 39.9516 53.9612 40.1023 54.0662 40.2985C54.2307 40.6196 54.3219 40.9149 54.4091 41.2796C54.4884 41.6483 54.5399 41.9892 54.5816 42.3301C54.9582 42.2488 55.3387 42.1735 55.7311 42.12L54.5221 39.6504L54.7223 39.9318L56.2385 42.0605C56.4486 42.0427 56.6607 42.0308 56.8807 42.0268C57.1265 41.4798 57.1741 41.5055 57.3584 40.6949C57.3604 40.7603 57.3624 40.8237 57.3663 40.8832C57.396 41.3291 57.4694 41.6364 57.4833 42.0387C57.6577 42.0506 57.838 42.0665 58.0224 42.0883C58.06 41.6483 58.0561 41.1428 57.9867 40.798C57.8916 40.13 57.7409 39.5532 57.5625 38.915C57.6061 39.0022 57.6497 39.0895 57.6914 39.1747C57.9292 39.6642 58.1393 40.132 58.3256 40.6771C58.4961 41.2142 58.5972 41.6621 58.6328 42.1834L58.6982 42.1973C58.9004 41.8128 59.1046 41.0893 59.1938 40.5046C59.1799 40.4313 59.164 40.356 59.1422 40.2787C59.166 40.3223 59.1878 40.3659 59.2096 40.4075C59.2453 40.136 59.2552 39.9021 59.2274 39.7574C59.1184 39.2203 58.837 39.3709 58.6646 37.5177C58.5932 36.7665 58.5159 36.2551 58.4505 35.9103C58.3474 35.3969 58.0402 35.4187 57.6081 35.6903C57.2533 35.9142 56.7975 36.1977 56.3376 36.4732C55.3625 37.0539 54.2367 37.3354 53.8859 37.6624C53.5351 37.9914 53.4696 38.148 53.214 38.364C52.9603 38.5781 52.7759 38.3303 52.7759 38.3303C52.7759 38.3303 52.7383 38.2511 52.8473 38.0984C52.9543 37.9478 52.8949 37.8031 52.8949 37.8031C52.8949 37.8031 52.9385 37.8903 50.3836 37.2006C49.5115 36.9647 48.798 36.9389 48.0012 36.9925C46.3442 37.1054 46.2551 37.7932 45.8705 39.1786C45.6743 39.8803 45.6743 39.7356 45.6486 40.023C45.6208 40.3084 45.8309 41.5591 45.7913 41.8643C45.7516 42.1695 45.6664 42.1061 45.5831 42.3202C45.5296 42.453 45.4722 42.5719 45.4484 42.6611ZM59.7467 42.4609L59.7527 42.4629L59.7745 42.3677L59.7467 42.4609ZM60.3096 40.8515C60.5455 40.4313 60.7952 40.1617 61.1183 39.9199C61.0549 39.4958 60.9915 39.2084 60.9915 39.2084C60.9915 39.2084 61.045 39.2302 60.8824 39.5215C60.7754 39.7138 60.5098 40.348 60.3096 40.8515ZM61.1361 40.0329C60.8567 40.352 60.6664 40.6969 60.5197 41.2221C60.4147 41.672 60.3691 42.1319 60.3394 42.5957C60.385 42.6036 60.4305 42.6095 60.4741 42.6155L60.6486 41.9C60.7021 41.676 60.7576 41.452 60.8289 41.234C60.8507 41.1527 60.8745 41.0754 60.9062 41.0001C60.9142 40.9882 60.926 40.9407 60.9399 40.9248C60.9439 40.9189 60.9498 40.903 60.9558 40.8971C60.9637 40.8891 60.9657 40.8832 60.9756 40.8753L60.9617 40.901L60.9538 40.9327L60.9478 41.014C60.9478 41.0239 60.9478 41.0358 60.9478 41.0457C60.9478 41.1151 60.9518 41.1944 60.9538 41.2598L61.0113 41.9535C61.0192 42.1735 61.0172 42.4272 61.0509 42.6591H61.0846L61.1005 42.6313C61.3363 41.9138 61.2432 40.796 61.1361 40.0329ZM62.2798 42.3856L62.7297 41.1567C62.6643 41.0299 62.6187 40.8673 62.6306 40.7088C62.6405 40.578 62.6425 40.4471 62.6504 40.3163C62.6583 40.1518 62.6722 39.9873 62.7079 39.8208C62.7753 39.5196 62.7614 39.2599 62.7198 39.1251C62.6782 38.9884 62.8863 38.812 62.8486 38.5682C62.809 38.3244 62.6801 38.039 62.6801 38.039C62.6801 38.039 62.5573 36.7507 62.6465 36.2373C62.7356 35.7259 62.7574 35.4584 62.7356 35.0144C62.7218 34.7349 62.694 33.8747 62.6762 33.2742C62.5691 33.8073 62.3254 34.1998 62.1331 34.4674C61.8021 34.9272 61.7803 35.4683 61.8398 35.8865C61.929 36.5307 62.3313 37.1946 62.583 37.7912C62.8407 38.4076 62.6009 39.6563 62.4463 40.7365C62.3491 41.4282 62.3036 42.0546 62.2798 42.3856ZM62.9656 41.4084L62.7971 42.4985C63.0012 42.4609 63.2054 42.4232 63.4036 42.3856L63.5423 41.5888C63.4888 41.6126 63.4313 41.5967 63.3798 41.5115C63.3025 41.3866 63.0944 41.4362 62.9656 41.4084ZM18.2073 41.3192L18.3996 41.2955C18.3699 40.9783 18.36 40.7385 18.2172 40.3698C18.2153 40.3738 18.2153 40.3778 18.2153 40.3817C18.1479 40.7583 18.1816 41.018 18.2073 41.3192ZM19.787 39.6405C19.785 39.6623 19.7811 39.688 19.7771 39.7118L19.8227 39.6147C19.8108 39.6206 19.7989 39.6286 19.787 39.6405Z" fill="#1B8036"/>
</svg>
